<svg id="Layer_1" data-name="Layer 1" xmlns="http://www.w3.org/2000/svg" viewBox="0 0 278.67 299.17"><defs><style>.cls-1{fill:#fff;}</style></defs><title>buzzerRoundel</title><path class="cls-1" d="M148.51-1A139.16,139.16,0,0,0,9,138.39c0,76.86,62.44,139.36,139.3,139.37a139.6,139.6,0,0,0,29.7-3.21l35.85,20.91.1,0a18.89,18.89,0,0,0,7.71,2.43,30.24,30.24,0,0,0,5,.2,23.87,23.87,0,0,0,5.42-2.26l.07-.15.06-.09a16.19,16.19,0,0,0,6.57-7.32,23.07,23.07,0,0,0,2-9.69l.84-37.69c28.62-26.33,45.79-63.29,45.84-102.34l.25,0v-.15C287.67,61.54,224.66-1,148.51-1m73.88,227.19,1.42,1.68-1.42-1.68-4.73,4-.43,39.64L191.9,254.9l-9.29-5.81L177,251.78c-8.09,2.44-16.59,2.62-25.38,2.61h-3.43c-31.68,0-60.4-13.38-81.25-34.23a115.21,115.21,0,1,1,155.41,6ZM184.63,65l-.06-.27C173.31,58,160.54,54,148.4,54h0a68.52,68.52,0,0,0-26.55,5.28c-1.37.57-2.72,1.19-4,1.85a67.39,67.39,0,0,0-11.23,7q-2.62,2-5,4.31A65.84,65.84,0,0,0,89.27,88.26l0,.12-.74,1.46v.05L87.88,91h0l0,0h0a72.65,72.65,0,0,0-8.45,33.75A66.36,66.36,0,0,0,88,157.59h0l37.58,65.56,0,0v.16A28.46,28.46,0,0,0,140,235.49,24.46,24.46,0,0,0,148.4,237h0c9.28,0,17.93-5.46,22.92-13.79v-.15h0l35.92-62.44h-.6c2-1.94,2.59-3.93,3.59-5.94a62.43,62.43,0,0,0,6-19.69,79.62,79.62,0,0,0,.39-10.13l.06,0v-.3a72.5,72.5,0,0,0-8.24-33.87A64.67,64.67,0,0,0,184.63,65Zm8.79,66.49a49,49,0,0,1-1.38,6.54c-.39,1.37-.86,2.72-1.36,4.07a47,47,0,0,1-3.25,6.86v.05l-35.73,62.12-.1.18a6.72,6.72,0,0,1-1.65,2c-.09.36-1.28.61-1.52.61h0a3.81,3.81,0,0,1-1.37-.61c-.07-.37-1.26-1.08-1.66-1.76l-36.85-64.3.31-.06c-.46-.77-.89-1.58-1.29-2.38l-.22-.44c-.34-.71-.66-1.42-1-2.14l-.15-.35c-.29-.73-.56-1.48-.81-2.23-.12-.37-.24-.74-.35-1.12s-.21-.74-.32-1.11c-.18-.69-.34-1.39-.5-2.09.15.7.31,1.4.5,2.08a44.63,44.63,0,0,1-1.07-5.17q.19,1.32.46,2.61-.27-1.29-.46-2.61l0-.14c-.16-1.13-.28-2.26-.37-3.41,0-.11-.23-.22-.24-.33-.09-1.2-.34-2.4-.34-3.61h0a49.82,49.82,0,0,1,6.15-24h.08l-.07,0-.08,0-.07,0C116.67,86.45,131.34,77,148.4,77h0a46.47,46.47,0,0,1,15.43,3.13,62.86,62.86,0,0,1,9.8,4.54v0a47.84,47.84,0,0,1,15.25,16.85,49,49,0,0,1,5.24,22.85M173,107.5a7.71,7.71,0,0,1-3.18,10.45A89,89,0,0,0,159,124.68l-4.58,3.54a92.11,92.11,0,0,0-9.68,9.54,7.39,7.39,0,0,1-5.86,2.24h0c-2.33,0-5-.61-6.45-2.37l.23.3c-1.26-1.52-2.25-2.93-3.28-4.36l-1.41-1.87c-1.14-1.52-2.26-3-3.62-4.77a8.08,8.08,0,0,1-1.64-4.76,8.46,8.46,0,0,1,.06-1,8,8,0,0,1,.93-2.84l.11-.19a7.81,7.81,0,0,1,.54-.78,7.62,7.62,0,0,1,.58-.67l.15-.14a7.56,7.56,0,0,1,.64-.61,8,8,0,0,1,4.84-1.73,1.33,1.33,0,0,0,.43-.1,1.22,1.22,0,0,1,.4-.09h0c2.09,1,3.93,1.55,5.19,3.18,1.07,1.38,2,2.85,2.87,4A95.23,95.23,0,0,1,150.21,112h0l4.78-3.26h0c2.4-1.54,4.84-3,7.5-4.38.14-.08.29-.12.44-.18a7.66,7.66,0,0,1,3.21-.69s2.85.46,3.13.54A13.4,13.4,0,0,1,173,107.5Z" transform="translate(-9 0.98)"/></svg>