<?xml version="1.0" encoding="iso-8859-1"?>
<!-- Generator: Adobe Illustrator 19.0.0, SVG Export Plug-In . SVG Version: 6.00 Build 0)  -->
<svg version="1.1" id="Layer_1" xmlns="http://www.w3.org/2000/svg" xmlns:xlink="http://www.w3.org/1999/xlink" x="0px" y="0px"
	 viewBox="0 0 512 512" style="enable-background:new 0 0 512 512;" xml:space="preserve">
<path style="fill:#D68231;" d="M284.763,145.195c0-36.833-24.567-0.996-24.567-68.073V46.979c0-3.295-2.695-5.988-5.989-5.988
	h-21.086c-3.295,0-5.989,2.695-5.989,5.988v30.144c0,67.077-24.566,31.24-24.566,68.073v95.813c0,4.942,4.042,8.985,8.983,8.985
	h64.23c4.942,0,8.983-4.043,8.983-8.985V145.195z"/>
<rect x="227.132" y="50.368" style="opacity:0.2;enable-background:new    ;" width="33.065" height="12.976"/>
<rect x="221.102" y="144.769" style="fill:#FFFFFF;" width="45.125" height="82.101"/>
<path style="fill:#A4A9AD;" d="M265.446,49.848c0,3.004-2.458,5.462-5.462,5.462h-32.64c-3.004,0-5.462-2.458-5.462-5.462V39.486
	c0-3.004,2.458-5.462,5.462-5.462h32.64c3.004,0,5.462,2.458,5.462,5.462V49.848z"/>
<path style="fill:#D68231;" d="M162.074,159.244c0-36.833-24.567-0.996-24.567-68.073V61.027c0-3.295-2.695-5.989-5.989-5.989
	h-21.086c-3.295,0-5.989,2.695-5.989,5.989v30.144c0,67.077-24.566,31.24-24.566,68.073v95.813c0,4.942,4.042,8.985,8.983,8.985
	h64.23c4.942,0,8.983-4.043,8.983-8.985V159.244z"/>
<rect x="104.439" y="64.42" style="opacity:0.2;enable-background:new    ;" width="33.065" height="12.976"/>
<rect x="98.41" y="158.816" style="fill:#FFFFFF;" width="45.125" height="82.101"/>
<path style="fill:#A4A9AD;" d="M142.757,63.897c0,3.004-2.458,5.462-5.462,5.462h-32.639c-3.004,0-5.462-2.458-5.462-5.462V53.535
	c0-3.004,2.458-5.462,5.462-5.462h32.64c3.004,0,5.462,2.458,5.462,5.462v10.362H142.757z"/>
<rect x="26.149" y="215.04" style="fill:#00AD68;" width="459.693" height="248.061"/>
<rect x="26.149" y="424.05" style="opacity:0.1;enable-background:new    ;" width="48.577" height="23.378"/>
<rect x="166.299" y="255.074" style="opacity:0.1;enable-background:new    ;" width="48.577" height="23.378"/>
<rect x="214.188" y="399.679" style="opacity:0.1;enable-background:new    ;" width="48.577" height="23.378"/>
<rect x="325.378" y="352.402" style="opacity:0.1;enable-background:new    ;" width="48.577" height="23.378"/>
<rect x="416.709" y="413.869" style="opacity:0.1;enable-background:new    ;" width="48.577" height="23.378"/>
<rect x="343.052" y="232.768" style="opacity:0.1;enable-background:new    ;" width="48.577" height="23.378"/>
<rect x="461.55" y="298.856" style="opacity:0.1;enable-background:new    ;" width="24.294" height="23.378"/>
<rect x="26.149" y="306.873" style="opacity:0.1;enable-background:new    ;" width="24.294" height="23.378"/>
<rect x="340.791" y="144.769" style="fill:#A4A9AD;" width="105.554" height="55.098"/>
<rect x="340.791" y="144.769" style="opacity:0.1;enable-background:new    ;" width="105.554" height="20.82"/>
<path style="fill:#D1D3D3;" d="M454.097,128.773c0-3.083-2.523-5.606-5.606-5.606H338.647c-3.084,0-5.606,2.523-5.606,5.606v15.331
	c0,3.083,2.523,5.606,5.606,5.606h109.845c3.084,0,5.606-2.523,5.606-5.606v-15.331H454.097z"/>
<path style="fill:#333E48;" d="M485.844,244.457v-46.6c0-6.167-5.046-11.212-11.212-11.212H37.362
	c-6.166,0-11.212,5.046-11.212,11.212v46.6L485.844,244.457L485.844,244.457z"/>
<rect x="349.661" y="288.456" style="fill:#FFB819;" width="105.554" height="174.634"/>
<circle style="fill:#333E48;" cx="376.237" cy="384.67" r="8.898"/>
<path style="fill:#FFFFFF;" d="M71.389,411.37c-6.166,0-11.212-5.046-11.212-11.212V288.462c0-6.167,5.046-11.212,11.212-11.212
	h228.589c6.166,0,11.212,5.046,11.212,11.212v111.696c0,6.166-5.046,11.212-11.212,11.212H71.389z"/>
<g>
	<polygon style="fill:#218649;" points="82.601,388.946 82.601,299.673 134.143,388.946 	"/>
	<polygon style="fill:#218649;" points="134.143,388.946 185.684,299.673 237.225,388.946 	"/>
</g>
<g>
	<polygon style="fill:#FFB819;" points="185.684,299.673 134.143,388.946 82.601,299.673 	"/>
	<polygon style="fill:#FFB819;" points="288.766,299.673 237.225,388.946 185.684,299.673 	"/>
</g>
<polygon style="fill:#218649;" points="237.225,388.946 288.766,299.673 288.766,388.946 "/>
<path style="fill:#333E48;" d="M512,473.562c0,2.427-1.984,4.413-4.412,4.413H4.412c-2.427,0-4.412-1.986-4.412-4.413V457.77
	c0-2.427,1.985-4.413,4.412-4.413h503.176c2.428,0,4.412,1.986,4.412,4.413V473.562z"/>
<rect x="337.656" y="453.357" style="fill:#A4A9AD;" width="129.585" height="24.618"/>
<g>
</g>
<g>
</g>
<g>
</g>
<g>
</g>
<g>
</g>
<g>
</g>
<g>
</g>
<g>
</g>
<g>
</g>
<g>
</g>
<g>
</g>
<g>
</g>
<g>
</g>
<g>
</g>
<g>
</g>
</svg>
